<svg width="16" height="13" viewBox="0 0 16 13" fill="none" xmlns="http://www.w3.org/2000/svg">
<path fill-rule="evenodd" clip-rule="evenodd" d="M7.62446 3.32421L7.65601 3.85686L7.13021 3.79164C5.21632 3.54162 3.54429 2.69373 2.12464 1.26971L1.43059 0.563141L1.25182 1.08492C0.873247 2.24805 1.11511 3.47639 1.90381 4.30254C2.32444 4.7591 2.2298 4.82432 1.5042 4.55256C1.25182 4.4656 1.03099 4.40038 1.00995 4.43299C0.936343 4.50908 1.18872 5.49828 1.38853 5.88961C1.66194 6.43313 2.21928 6.96578 2.82921 7.28102L3.34449 7.53104L2.73456 7.54191C2.14567 7.54191 2.12464 7.55278 2.18774 7.78105C2.39805 8.48763 3.22881 9.23768 4.15421 9.56379L4.8062 9.79207L4.23834 10.1399C3.39707 10.64 2.40857 10.9226 1.42007 10.9443C0.946858 10.9552 0.55777 10.9987 0.55777 11.0313C0.55777 11.14 1.84071 11.7487 2.58734 11.9879C4.82723 12.6945 7.48776 12.3901 9.48578 11.1835C10.9054 10.3247 12.3251 8.61807 12.9876 6.96578C13.3451 6.08528 13.7027 4.47647 13.7027 3.70467C13.7027 3.20464 13.7342 3.13941 14.3231 2.54154C14.6701 2.19369 14.9961 1.81323 15.0592 1.70453C15.1644 1.49799 15.1539 1.49799 14.6175 1.68279C13.7237 2.0089 13.5975 1.96542 14.0392 1.47625C14.3652 1.1284 14.7543 0.497919 14.7543 0.313123C14.7543 0.280512 14.5965 0.334864 14.4177 0.432696C14.2285 0.5414 13.8078 0.704455 13.4923 0.802288L12.9245 0.987085L12.4092 0.628364C12.1253 0.432697 11.7257 0.21529 11.5153 0.150068C10.979 -0.00211716 10.1588 0.0196238 9.67507 0.193549C8.36058 0.682715 7.52982 1.94368 7.62446 3.32421Z" fill="#172B4D"/>
</svg>
