<svg width="17" height="17" viewBox="0 0 17 17" fill="none" xmlns="http://www.w3.org/2000/svg">
<path fill-rule="evenodd" clip-rule="evenodd" d="M4.24699 16.4824H0.888428V6.40674H4.24699V16.4824Z" fill="#172B4D"/>
<path fill-rule="evenodd" clip-rule="evenodd" d="M2.55772 4.16789H2.53865C1.53638 4.16789 0.888428 3.4212 0.888428 2.48803C0.888428 1.53512 1.55611 0.809326 2.5774 0.809326C3.59869 0.809326 4.22762 1.53512 4.24699 2.48803C4.24699 3.4212 3.59869 4.16789 2.55772 4.16789Z" fill="#172B4D"/>
<path fill-rule="evenodd" clip-rule="evenodd" d="M16.5616 16.4822H13.2613V11.2155C13.2613 9.8926 12.7838 8.98991 11.589 8.98991C10.6772 8.98991 10.1341 9.59845 9.89555 10.1862C9.80828 10.3969 9.78686 10.6904 9.78686 10.9846V16.4824H6.48605C6.48605 16.4824 6.52955 7.5619 6.48605 6.63816H9.78686V8.03252C10.2249 7.36223 11.0094 6.40674 12.7617 6.40674C14.9336 6.40674 16.5618 7.81403 16.5618 10.8378L16.5616 16.4822Z" fill="#172B4D"/>
</svg>
